<?xml version="1.0" encoding="utf-8"?>
<!-- Generator: Adobe Illustrator 22.0.0, SVG Export Plug-In . SVG Version: 6.00 Build 0)  -->
<svg version="1.1" id="Layer_2" xmlns="http://www.w3.org/2000/svg" xmlns:xlink="http://www.w3.org/1999/xlink" x="0px" y="0px"
	 viewBox="0 0 502.7 1127.8" style="enable-background:new 0 0 502.7 1127.8;" xml:space="preserve">
<style type="text/css">
	.st0{fill:#414042;}
	.st1{fill:#8E8E8E;}
	.st2{fill:#DCDDDE;}
	.st3{fill:#C1C1C1;}
	.st4{fill:#4C4C4C;}
	.st5{fill:#58595B;}
	.st6{fill:#1B75BB;}
	.st7{fill:#231F20;}
	.st8{fill:#FBC08D;}
	.st9{fill:#F1B78A;}
	.st10{fill:#4E3D32;}
	.st11{fill:#FFDD15;}
	.st12{fill:none;stroke:#F6921E;stroke-width:2;stroke-miterlimit:10;}
	.st13{fill:#F6921E;}
	.st14{fill:none;stroke:#E1AB87;stroke-width:2;stroke-miterlimit:10;}
	.st15{fill:#569B48;}
	.st16{fill:#FFFFFF;}
	.st17{fill:#E57200;}
	.st18{fill:#7A7A7A;}
</style>
<rect x="224.8" class="st0" width="56.2" height="36.2"/>
<rect x="0" y="39" class="st1" width="502.7" height="1088.8"/>
<rect x="43.4" y="64.5" class="st2" width="415.8" height="550.5"/>
<rect x="198.9" y="21.5" class="st1" width="108" height="29.5"/>
<rect x="43.4" y="64.5" class="st3" width="415.8" height="477"/>
<rect x="43.4" y="64.5" class="st0" width="57.3" height="550.5"/>
<rect x="405.2" y="64.5" class="st0" width="54" height="550.5"/>
<rect x="90.2" y="64.5" class="st4" width="10.5" height="550.5"/>
<rect x="405.2" y="64.5" class="st4" width="11.2" height="550.5"/>
<path class="st5" d="M280.5,566.3c0,0,38.2,4.4,41.4,0.2c3.2-4.1,23.7-10.8,22.6,14.8l-64.1-0.4L280.5,566.3z"/>
<path class="st6" d="M185.2,516.2c0,0,136.3-2.2,140.1,0.8c3.9,3,0.6,43.1-0.3,49.6c-0.9,6.4-39.4,7.2-42.8,4.7
	c-3.4-2.5-0.7-22.9-2.9-27.3c-2.1-4.4-40.6-4.2-42.4-0.3c-1.8,4,2,25.3-1.5,28.5c-3.5,3.2-44.6,1.5-47.6-0.3
	C184.9,570.3,183,520.2,185.2,516.2z"/>
<path class="st5" d="M237.8,580.5c0.5-16.3-11-19.9-24.5-20c-13.5-0.1-26.8,4.5-26.9,19.7L237.8,580.5z"/>
<polygon class="st7" points="186.3,580.2 237.8,580.5 237.7,587.3 186.3,586.9 "/>
<polygon class="st7" points="280.5,580.9 280.4,587.5 344.6,587.9 344.6,581.3 "/>
<path class="st8" d="M175.2,526.7c0,0,10.4,9.6,9.8,11.6c-0.6,2,0.3,6.6-5.5,5.2c-5.8-1.4-7.6-5.3-7.6-5.3s-1.9,12-0.1,14.8
	c1.8,2.7,1.6,4.5-1.8,5c-3.4,0.4-6.6-3.7-7.5-5.9c-0.9-2.3,0.9,2.3,0.9,2.3s-3.3,2.7-5.1-0.9c-1.8-3.6-5.6-2.8-5.6-6.8
	c0-4.1-2.5-6.8-2.4-8.4c0.1-1.6,0.8-12.1,0.8-12.1L175.2,526.7z"/>
<path class="st8" d="M334.7,525c0,0-10.4,9.6-9.8,11.6c0.6,2-0.3,6.6,5.5,5.2c5.8-1.4,7.6-5.3,7.6-5.3s1.9,12,0.1,14.8
	c-1.8,2.7-1.6,4.5,1.8,5c3.4,0.4,6.6-3.7,7.5-5.9c0.9-2.3-0.9,2.3-0.9,2.3s3.3,2.7,5.1-0.9c1.8-3.6,5.6-2.8,5.6-6.8
	c0-4.1,2.5-6.8,2.4-8.4c-0.1-1.6-0.8-12.1-0.8-12.1L334.7,525z"/>
<path class="st0" d="M415.6,352.2"/>
<path class="st9" d="M196.3,401.3c5,8.9,1.1,13.6-0.6,17.8c-1.7,4.1,1.3,24.8,8.1,28.4c10.6,5.7,90.1,3.1,97.7-2.1
	c7.6-5.2,8.6-28.6,5.8-30c-2.8-1.3-2.8-8.6-2.1-14.1L196.3,401.3z"/>
<path class="st8" d="M175.9,320.6c-3.1-5.8-19.8-4-17.6,16.6c1.5,13.5,10.5,18.1,18.3,12.7l1.5,41.6c0,0-2.5,18.8,19.7,19
	c22.2,0.1,97,1.6,103.7,0.6c7.4-1.1,23.9-4.3,26.5-18.4c0.7-3.8,0.8-41.9,0.8-41.9c-4.8-2.6,19.4,13.4,19.6-16.6
	c0.1-23.2-18.4-16.1-18.7-13.1c-0.4,3.1-2.5-24-3.1-26.8c-0.7-2.7-146.1-2.1-146.1-2.1L175.9,320.6z"/>
<path class="st7" d="M234.6,339.1c0,4.3-3.8,7.7-8.4,7.7c-4.6,0-8.3-3.5-8.3-7.8c0-4.3,3.8-7.7,8.4-7.7
	C231,331.4,234.7,334.9,234.6,339.1z"/>
<path class="st7" d="M290.2,339.4c0,4.3-3.8,7.7-8.4,7.7c-4.6,0-8.3-3.5-8.3-7.8c0-4.3,3.8-7.7,8.4-7.7
	C286.5,331.7,290.2,335.2,290.2,339.4z"/>
<path class="st10" d="M205.8,320.8c-0.1-3.6,0.6-4.9,7.9-6.1c9.5-1.6,21.8-0.9,21.8-0.9s5.8,0.5,8,6.8
	C225.8,315.5,205.8,320.8,205.8,320.8z"/>
<path class="st10" d="M302.2,322c0.3-3.6-0.4-4.9-7.7-6.3c-9.4-1.9-21.8-1.6-21.8-1.6s-5.8,0.4-8.2,6.6
	C282.3,316,302.2,322,302.2,322z"/>
<path class="st10" d="M329.7,352.3c0,0-30.8-42.1-28.6-57.8l-61-0.4c0,0-37.2,5.2-30.9,38.7c0,0-11.6-2.4-16.6-14.4
	c0,0-14.1,21.9-15.2,40.5c0,0-23.9-49.1-2.7-64.8c23.1-17.1,97.1-32.8,131.8-14.9C340.9,297.1,347,309.1,329.7,352.3z"/>
<path class="st11" d="M177.6,299.2c-9.5-14.4-3.5-89.6,40.1-93.9c11.9-2.2,11.8-3.8,15.1-9.8c3.6-4.5,17.8-3.3,17.8-3.3
	s13.5,0,16.8,1.8c3.3,1.8,3.3,9.3,19.3,12.1c46,8.9,44.6,70.8,38.8,90.7C241.1,249.5,177.6,299.2,177.6,299.2z"/>
<path class="st12" d="M229.6,201.3c0,0,1.5,21.3-0.2,30.2c-1.6,8.9-7.4,8.2-11.6,14c-4.1,5.7-2,27.9-2,27.9"/>
<path class="st11" d="M167.4,303.2c22.8-16.2,145.8-17.8,168.6-0.2C309.8,253.6,190.1,254.6,167.4,303.2z"/>
<path class="st13" d="M174.7,292.3c30.6-21,116.5-23.4,152.6-1C304.3,260.7,195.9,262.6,174.7,292.3z"/>
<path class="st14" d="M245.7,356.5c0,0-9.8,4.6-3.8,11c4.9,5.3,19.6,4.1,23.5,0.1c4.4-4.5,2-9.2-3.3-11.4"/>
<path class="st11" d="M345.7,247.8"/>
<path class="st13" d="M227.5,202.3c0,0,2.1-1.3,3.1-3c1-1.7,1.6,34.1,0.4,37.4c-1.2,3.3-5.2,6.3-8.2,8c-3.1,1.7-4.3,6.6-4.8,10.7
	c-0.5,4.1-0.1,18-0.1,18l-3.6,1.3c0,0-0.2-16.5,0.1-20.1c0.4-3.6,2.8-11.7,6-13.6c3.3-1.9,6.2-2.7,7.5-7.5
	C229.3,228.7,227.5,202.3,227.5,202.3z"/>
<path class="st13" d="M275.5,202.1c0,0-1.3-0.5-2.8-2c-1.4-1.4-2.9,32.2-1.7,35.5c1.2,3.3,5.1,6.4,8.1,8.1c3,1.7,4.2,6.7,4.7,10.8
	c0.5,4.1-0.1,18-0.1,18l3.6,1.3c0,0,0.4-16.5,0.1-20.1c-0.3-3.6-2.7-11.8-5.9-13.7c-3.2-1.9-6.1-2.8-7.5-7.5
	C272.7,227.6,275.5,202.1,275.5,202.1z"/>
<path class="st15" d="M197.2,415c8.1,11,90.4,19.2,110.9,0.7c19.1,0.5,33.4,8.4,36.4,10.3c5.9,3.7,12,21.5,13.5,30
	c7.3,40.9,2.9,62.1,0.6,70.1c-16.2,6.3-26-2.3-26,0c0.1,5.6,0.6-58.6-4.3-61.5c0,0,2.9,56.6-1.4,60c-5,4-139.1,5.6-143.6,1.4
	c-3.9-3.6,1.1-59.8-0.6-58.3c-6.4,5.6-1.9,60.1-4.9,61.4c-3.3,1.5-26.2-2.2-27.5-3c0,0-2.1-67.3,4-83.6
	c6.4-17.2,13.7-17.2,29.2-19.4C199,420.9,197.2,415,197.2,415z"/>
<path class="st16" d="M226.4,382.1c13.8,7.3,45.9,3.6,56.7-2.2c0,0,1.4,10.1-4,12.5c-4.8,2.1-43.3,3.3-49.4-1.1
	C226.4,389,226.4,382.1,226.4,382.1z"/>
<rect x="466.2" y="383.3" class="st17" width="28.1" height="35.5"/>
<rect x="466.2" y="433.1" class="st17" width="28.1" height="35.5"/>
<polygon class="st16" points="489.9,443.5 470.5,443.5 480.2,460.8 "/>
<polygon class="st16" points="489.9,407.7 470.5,407.7 480.2,390.4 "/>
<rect x="43.4" y="615" class="st18" width="415.8" height="11.8"/>
<g>
	<g>
		<polygon class="st16" points="263.5,469.7 263.4,458.2 270.7,453 270.8,458.1 278.4,453.1 278.4,458.1 286.8,453 286.8,458.1 
			295.4,453 295.4,458.1 298.2,458.1 299.9,437.4 303.3,437.4 304.8,458.1 306.5,443.6 309.7,443.6 311.2,458.1 312.5,458.2 
			312.5,469.7 		"/>
	</g>
	<g>
		<g>
			<path class="st16" d="M263.9,469.7c0-3.8,0-7.7,0-11.5c-0.1,0.1-0.1,0.2-0.2,0.4c2.4-1.7,4.9-3.5,7.3-5.2
				c-0.2-0.1-0.4-0.2-0.6-0.4c0,1.7,0,3.4,0,5.1c0,0.3,0.4,0.5,0.6,0.4c2.6-1.7,5.1-3.3,7.7-5c-0.2-0.1-0.4-0.2-0.6-0.4
				c0,1.7,0,3.3,0,5c0,0.3,0.4,0.5,0.6,0.4c2.8-1.7,5.6-3.4,8.4-5.1c-0.2-0.1-0.4-0.2-0.6-0.4c0,1.7,0,3.4,0,5.1
				c0,0.3,0.3,0.5,0.6,0.4c2.9-1.7,5.8-3.4,8.7-5.1c-0.2-0.1-0.4-0.2-0.6-0.4c0,1.7,0,3.4,0,5.1c0,0.2,0.2,0.4,0.4,0.4
				c0.9,0,1.8,0,2.7,0c0.2,0,0.4-0.2,0.4-0.4c0.5-5.8,1-11.7,1.4-17.5c0.1-1.1,0.2-2.1,0.3-3.2c-0.1,0.1-0.3,0.3-0.4,0.4
				c1.1,0,2.3,0,3.4,0c-0.1-0.1-0.3-0.3-0.4-0.4c0.4,5.8,0.9,11.7,1.3,17.5c0.1,1.1,0.2,2.1,0.2,3.2c0,0.5,0.8,0.5,0.8,0
				c0.6-4.9,1.1-9.7,1.7-14.6c-0.1,0.1-0.3,0.3-0.4,0.4c1.1,0,2.2,0,3.2,0c-0.1-0.1-0.3-0.3-0.4-0.4c0.5,4.9,1,9.7,1.4,14.6
				c0,0.2,0.2,0.4,0.4,0.4c0.5,0,0.9,0.1,1.4,0.1c-0.1-0.1-0.3-0.3-0.4-0.4c0,3.8,0,7.7,0,11.5c0.1-0.1,0.3-0.3,0.4-0.4
				c-3.9,0-7.8,0-11.7,0c-7.5,0-15,0-22.6,0c-4.8,0-9.6,0-14.5,0c-0.1,0-0.2,0-0.3,0c-0.5,0-0.5,0.8,0,0.8c3.9,0,7.8,0,11.7,0
				c7.5,0,15,0,22.6,0c4.8,0,9.6,0,14.5,0c0.1,0,0.2,0,0.3,0c0.2,0,0.4-0.2,0.4-0.4c0-3.8,0-7.7,0-11.5c0-0.2-0.2-0.4-0.4-0.4
				c-0.5,0-0.9-0.1-1.4-0.1c0.1,0.1,0.3,0.3,0.4,0.4c-0.5-4.9-1-9.7-1.4-14.6c0-0.2-0.2-0.4-0.4-0.4c-1.1,0-2.2,0-3.2,0
				c-0.2,0-0.4,0.2-0.4,0.4c-0.6,4.9-1.1,9.7-1.7,14.6c0.3,0,0.5,0,0.8,0c-0.4-5.8-0.9-11.7-1.3-17.5c-0.1-1.1-0.2-2.1-0.2-3.2
				c0-0.2-0.2-0.4-0.4-0.4c-1.1,0-2.3,0-3.4,0c-0.2,0-0.4,0.2-0.4,0.4c-0.5,5.8-1,11.7-1.4,17.5c-0.1,1.1-0.2,2.1-0.3,3.2
				c0.1-0.1,0.3-0.3,0.4-0.4c-0.9,0-1.8,0-2.7,0c0.1,0.1,0.3,0.3,0.4,0.4c0-1.7,0-3.4,0-5.1c0-0.3-0.3-0.5-0.6-0.4
				c-2.9,1.7-5.8,3.4-8.7,5.1c0.2,0.1,0.4,0.2,0.6,0.4c0-1.7,0-3.4,0-5.1c0-0.3-0.4-0.5-0.6-0.4c-2.8,1.7-5.6,3.4-8.4,5.1
				c0.2,0.1,0.4,0.2,0.6,0.4c0-1.7,0-3.3,0-5c0-0.3-0.4-0.5-0.6-0.4c-2.6,1.7-5.1,3.3-7.7,5c0.2,0.1,0.4,0.2,0.6,0.4
				c0-1.7,0-3.4,0-5.1c0-0.3-0.4-0.5-0.6-0.4c-2.3,1.7-4.6,3.3-7,5c-0.2,0.2-0.5,0.3-0.5,0.7c0,0.4,0,0.8,0,1.2c0,1.8,0,3.5,0,5.3
				c0,1.6,0,3.3,0,4.9C263.1,470.2,263.9,470.2,263.9,469.7z"/>
		</g>
	</g>
</g>
<g>
	<path class="st15" d="M268.7,468.3h-2.8v-7.5h2.8c1.8,0,2.5,0.9,2.5,2v3.6C271.2,467.3,270.5,468.3,268.7,468.3z M269.5,463.2
		c0-0.6-0.2-0.9-1-0.9h-1v4.5h1c0.8,0,1-0.3,1-0.9V463.2z"/>
	<path class="st15" d="M268.7,468.3h-2.9v-7.6h2.9c1.6,0,2.5,0.8,2.5,2v3.6C271.3,467.6,270.3,468.3,268.7,468.3z M265.9,468.2h2.8
		c1.5,0,2.4-0.7,2.4-1.9v-3.6c0-1.2-0.9-1.9-2.4-1.9h-2.8V468.2z M268.5,466.8h-1.1v-4.6h1.1c0.9,0,1.1,0.4,1.1,1v2.7
		C269.6,466.5,269.4,466.8,268.5,466.8z M267.6,466.7h0.9c0.8,0,1-0.3,1-0.9v-2.7c0-0.5-0.2-0.9-1-0.9h-0.9V466.7z"/>
</g>
<g>
	<path class="st15" d="M275.5,466.1v2.2h-1.7v-2.2l-2.3-5.4h1.7l1.4,3.5l1.4-3.5h1.7L275.5,466.1z"/>
	<path class="st15" d="M275.6,468.3h-1.8v-2.2l-2.3-5.4h1.9l1.3,3.4l1.3-3.4h1.9l-2.3,5.4V468.3z M273.9,468.2h1.5l0-2.1l2.3-5.3
		h-1.6l-1.4,3.6l-1.4-3.6h-1.6l2.3,5.3V468.2z"/>
</g>
<g>
	<path class="st15" d="M280.1,463.3v5h-1.6v-7.5h2l2.4,5.2v-5.2h1.6v7.5h-2L280.1,463.3z"/>
	<path class="st15" d="M284.6,468.3h-2.1l-2.3-4.8v4.8h-1.7v-7.6h2.1l0,0l2.3,4.9v-5h1.7V468.3z M282.5,468.2h1.9v-7.4H283v5.4
		l-2.5-5.4h-1.9v7.4h1.5v-5.1L282.5,468.2z"/>
</g>
<g>
	<path class="st15" d="M292.1,468.3h-1.7l-0.4-1.5h-2.5l-0.4,1.5h-1.7l2.2-7.5h2.2L292.1,468.3z M287.9,465.4h1.7l-0.8-3.2
		L287.9,465.4z"/>
	<path class="st15" d="M292.2,468.3h-1.8l-0.4-1.5h-2.4l-0.4,1.5h-1.8l2.3-7.6h2.3L292.2,468.3z M290.4,468.2h1.6l-2.2-7.4h-2.1
		l-2.2,7.4h1.6l0.4-1.5h2.6L290.4,468.2z M289.6,465.5h-1.8l0.9-3.4L289.6,465.5z M288,465.3h1.5l-0.8-2.9L288,465.3z"/>
</g>
<g>
	<path class="st15" d="M294.5,464.1l-0.1,4.2h-1.6l0.3-7.5h1.7l1.8,4.8l1.8-4.8h1.7l0.3,7.5h-1.6l-0.1-4.2l-1.3,3.2h-1.5
		L294.5,464.1z"/>
	<path class="st15" d="M300.3,468.3h-1.7l-0.1-4l-1.2,3h-1.6l-1.2-3l-0.1,4h-1.7l0.3-7.6h1.8l1.7,4.7l1.7-4.7h1.8L300.3,468.3z
		 M298.7,468.2h1.5l-0.3-7.4h-1.6l-1.8,4.9l-1.8-4.9h-1.6l-0.3,7.4h1.5l0.1-4.4l1.4,3.4h1.4l1.4-3.4L298.7,468.2z"/>
</g>
<g>
	<path class="st15" d="M301.6,468.3v-7.5h1.7v7.5H301.6z"/>
	<path class="st15" d="M303.4,468.3h-1.8v-7.6h1.8V468.3z M301.7,468.2h1.5v-7.4h-1.5V468.2z"/>
</g>
<g>
	<path class="st15" d="M304.8,460.8h1.7v7.5h-1.7V460.8z M306.6,464.4l2-3.7h1.9l-2.1,3.7l2.2,3.8h-1.9L306.6,464.4z"/>
	<path class="st15" d="M310.8,468.3h-2l0,0l-2.2-3.9l2-3.7h2l-2.1,3.7L310.8,468.3z M308.8,468.2h1.7l-2.2-3.8l2-3.6h-1.7l-2,3.6
		L308.8,468.2z M306.5,468.3h-1.8v-7.6h1.8V468.3z M304.8,468.2h1.5v-7.4h-1.5V468.2z"/>
</g>
<g>
	<path class="st16" d="M263.1,476.7v-6.9h4.3v1.4h-2.8v1.5h2.5v1.4h-2.5v2.7H263.1z"/>
	<path class="st16" d="M264.7,476.7h-1.6v-7h4.4v1.5h-2.8v1.4h2.5v1.5h-2.5V476.7z M263.2,476.6h1.4v-2.7h2.5v-1.3h-2.5v-1.6h2.8
		v-1.3h-4.2V476.6z"/>
</g>
<g>
	<path class="st16" d="M273.5,476.7H272l-0.4-1.3h-2.3l-0.4,1.3h-1.6l2.1-6.9h2L273.5,476.7z M269.7,474h1.5l-0.8-2.9L269.7,474z"/>
	<path class="st16" d="M273.6,476.7h-1.7l-0.4-1.3h-2.2l-0.4,1.3h-1.7l2.1-7h2.1L273.6,476.7z M272,476.6h1.5l-2-6.8h-1.9l-2,6.8
		h1.5l0.4-1.3h2.3L272,476.6z M271.3,474.1h-1.7l0.9-3.2L271.3,474.1z M269.8,474h1.4l-0.7-2.6L269.8,474z"/>
</g>
<g>
	<path class="st16" d="M277.2,476.7h-2.9v-6.9h2.7c1.4,0,1.9,0.6,1.9,1.5v0.7c0,0.5-0.2,0.8-0.7,1.1c0.6,0.1,1,0.6,1,1.3v0.7
		C279.1,476,278.5,476.7,277.2,476.7z M277.4,471.5c0-0.3-0.2-0.5-0.6-0.5h-0.9v1.6h0.9c0.4,0,0.6-0.2,0.6-0.5V471.5z M277.6,474.4
		c0-0.4-0.2-0.6-0.6-0.6h-1.2v1.6h0.9c0.5,0,0.8-0.1,0.8-0.6V474.4z"/>
	<path class="st16" d="M277.2,476.7h-2.9v-7h2.7c1.3,0,2,0.5,2,1.6v0.7c0,0.5-0.2,0.8-0.6,1.1c0.5,0.2,0.9,0.7,0.9,1.3v0.7
		C279.2,476.1,278.4,476.7,277.2,476.7z M274.4,476.6h2.8c1.2,0,1.9-0.6,1.9-1.6v-0.7c0-0.6-0.4-1.1-0.9-1.2l-0.2,0l0.2-0.1
		c0.5-0.2,0.7-0.5,0.7-1v-0.7c0-1-0.6-1.5-1.9-1.5h-2.6V476.6z M276.8,475.5h-1v-1.7h1.2c0.4,0,0.7,0.2,0.7,0.6v0.4
		C277.7,475.4,277.2,475.5,276.8,475.5z M275.9,475.4h0.9c0.6,0,0.8-0.2,0.8-0.5v-0.4c0-0.4-0.3-0.5-0.6-0.5h-1.1V475.4z
		 M276.8,472.7h-1V471h1c0.5,0,0.7,0.3,0.7,0.5v0.6C277.4,472.5,277.2,472.7,276.8,472.7z M275.9,472.6h0.9c0.3,0,0.5-0.2,0.5-0.4
		v-0.6c0-0.3-0.2-0.4-0.5-0.4h-0.9V472.6z"/>
</g>
<g>
	<path class="st16" d="M282.5,474.5h-0.9v2.1h-1.5v-6.9h2.8c1.6,0,2.2,0.7,2.2,2v0.8c0,0.9-0.3,1.4-1,1.7l1.6,2.4H284L282.5,474.5z
		 M283.6,471.9c0-0.5-0.2-0.7-0.8-0.7h-1.2v2h1.2c0.6,0,0.8-0.2,0.8-0.8V471.9z"/>
	<path class="st16" d="M285.9,476.7h-1.9l-1.5-2.1h-0.8v2.1H280v-7h2.9c1.6,0,2.3,0.6,2.3,2v0.8c0,0.9-0.3,1.5-1,1.8L285.9,476.7z
		 M284,476.6h1.7l-1.6-2.3l0.1,0c0.6-0.3,0.9-0.8,0.9-1.7v-0.8c0-1.3-0.7-1.9-2.2-1.9h-2.7v6.8h1.4v-2.1h1L284,476.6z M282.8,473.2
		h-1.3v-2.1h1.3c0.6,0,0.9,0.2,0.9,0.8v0.5C283.7,472.9,283.5,473.2,282.8,473.2z M281.7,473.1h1.1c0.6,0,0.8-0.2,0.8-0.7v-0.5
		c0-0.5-0.2-0.7-0.8-0.7h-1.1V473.1z"/>
</g>
<g>
	<path class="st16" d="M286.6,476.7v-6.9h1.5v6.9H286.6z"/>
	<path class="st16" d="M288.2,476.7h-1.6v-7h1.6V476.7z M286.7,476.6h1.4v-6.8h-1.4V476.6z"/>
</g>
<g>
	<path class="st16" d="M289.5,469.8h1.5v6.9h-1.5V469.8z M291.2,473.2l1.8-3.4h1.7l-1.9,3.4l2,3.5h-1.7L291.2,473.2z"/>
	<path class="st16" d="M295,476.7h-1.8l0,0l-2-3.5l1.9-3.4h1.8l-1.9,3.4L295,476.7z M293.2,476.6h1.6l-2-3.5l1.9-3.3h-1.6l-1.8,3.3
		L293.2,476.6z M291.1,476.7h-1.6v-7h1.6V476.7z M289.6,476.6h1.4v-6.8h-1.4V476.6z"/>
</g>
<g>
	<path class="st16" d="M295.7,469.8h1.5v6.9h-1.5V469.8z M297.5,473.2l1.8-3.4h1.7l-1.9,3.4l2,3.5h-1.7L297.5,473.2z"/>
	<path class="st16" d="M301.2,476.7h-1.8l0,0l-2-3.5l1.9-3.4h1.8l-1.9,3.4L301.2,476.7z M299.5,476.6h1.6l-2-3.5l1.9-3.3h-1.6
		l-1.8,3.3L299.5,476.6z M297.3,476.7h-1.6v-7h1.6V476.7z M295.8,476.6h1.4v-6.8h-1.4V476.6z"/>
</g>
<g>
	<path class="st16" d="M302,476.7v-6.9h4.2v1.4h-2.7v1.3h2.5v1.4h-2.5v1.5h2.7v1.4H302z"/>
	<path class="st16" d="M306.3,476.7h-4.4v-7h4.4v1.5h-2.7v1.1h2.5v1.5h-2.5v1.4h2.7V476.7z M302,476.6h4.1v-1.3h-2.7v-1.6h2.5v-1.3
		h-2.5v-1.4h2.7v-1.3H302V476.6z"/>
</g>
<g>
	<path class="st16" d="M308.8,472.1v4.5h-1.4v-6.9h1.9l2.2,4.8v-4.8h1.4v6.9H311L308.8,472.1z"/>
	<path class="st16" d="M313,476.7h-2l-2.1-4.3v4.3h-1.6v-7h2l0,0l2.1,4.5v-4.5h1.6V476.7z M311.1,476.6h1.8v-6.8h-1.3v5l-2.3-5h-1.8
		v6.8h1.3v-4.7L311.1,476.6z"/>
</g>
</svg>
