<?xml version="1.0" encoding="utf-8"?>
<!-- Generator: Adobe Illustrator 22.0.0, SVG Export Plug-In . SVG Version: 6.00 Build 0)  -->
<svg version="1.1" id="Layer_2" xmlns="http://www.w3.org/2000/svg" xmlns:xlink="http://www.w3.org/1999/xlink" x="0px" y="0px"
	 viewBox="0 0 816.1 1713.3" style="enable-background:new 0 0 816.1 1713.3;" xml:space="preserve">
<style type="text/css">
	.st0{fill:#8E8E8E;}
	.st1{fill:#414042;}
	.st2{fill:#DCDDDE;}
	.st3{fill:#C1C1C1;}
	.st4{fill:#4C4C4C;}
	.st5{fill:#58595B;}
	.st6{fill:#1B75BB;}
	.st7{fill:#231F20;}
	.st8{fill:#FBC08D;}
	.st9{fill:#F1B78A;}
	.st10{fill:#4E3D32;}
	.st11{fill:#FFDD15;}
	.st12{fill:none;stroke:#F6921E;stroke-width:2;stroke-miterlimit:10;}
	.st13{fill:#F6921E;}
	.st14{fill:none;stroke:#E1AB87;stroke-width:2;stroke-miterlimit:10;}
	.st15{fill:#569B48;}
	.st16{fill:#FFFFFF;}
	.st17{fill:#E57200;}
	.st18{fill:#7A7A7A;}
</style>
<circle class="st0" cx="405.3" cy="177.9" r="56.7"/>
<ellipse transform="matrix(1 -8.527209e-03 8.527209e-03 1 -2.0672 2.3164)" class="st0" cx="270.6" cy="243.6" rx="25.5" ry="25.5"/>
<ellipse transform="matrix(0.2332 -0.9724 0.9724 0.2332 138.6934 528.2742)" class="st1" cx="404.3" cy="176.2" rx="34.7" ry="34.7"/>
<ellipse transform="matrix(8.228547e-02 -0.9966 0.9966 8.228547e-02 5.2413 492.4086)" class="st1" cx="270" cy="243.4" rx="14.4" ry="14.4"/>
<rect x="403.4" y="519.6" class="st1" width="56.2" height="36.2"/>
<rect x="178.6" y="558.6" class="st0" width="502.7" height="1088.8"/>
<rect x="222" y="584.1" class="st2" width="415.8" height="550.5"/>
<rect x="377.6" y="541.1" class="st0" width="108" height="29.5"/>
<rect x="222" y="584.1" class="st3" width="415.8" height="477"/>
<rect x="222" y="584.1" class="st1" width="57.3" height="550.5"/>
<rect x="583.9" y="584.1" class="st1" width="54" height="550.5"/>
<rect x="268.8" y="584.1" class="st4" width="10.5" height="550.5"/>
<rect x="583.9" y="584.1" class="st4" width="11.2" height="550.5"/>
<path class="st5" d="M459.2,1085.9c0,0,38.2,4.4,41.4,0.2c3.2-4.1,23.7-10.8,22.6,14.8l-64.1-0.4L459.2,1085.9z"/>
<path class="st6" d="M363.8,1035.8c0,0,136.3-2.2,140.1,0.8c3.9,3,0.6,43.1-0.3,49.6c-0.9,6.4-39.4,7.2-42.8,4.7
	c-3.4-2.5-0.7-22.9-2.9-27.3c-2.1-4.4-40.6-4.2-42.4-0.3c-1.8,4,2,25.3-1.5,28.5c-3.5,3.2-44.6,1.5-47.6-0.3
	C363.5,1089.8,361.6,1039.8,363.8,1035.8z"/>
<path class="st5" d="M416.4,1100c0.5-16.3-11-19.9-24.5-20c-13.5-0.1-26.8,4.5-26.9,19.7L416.4,1100z"/>
<polygon class="st7" points="365,1099.7 416.4,1100 416.4,1106.8 364.9,1106.5 "/>
<polygon class="st7" points="459.1,1100.5 459.1,1107.1 523.2,1107.5 523.2,1100.9 "/>
<path class="st8" d="M353.8,1046.3c0,0,10.4,9.6,9.8,11.6c-0.6,2,0.3,6.6-5.5,5.2c-5.8-1.4-7.6-5.3-7.6-5.3s-1.9,12-0.1,14.8
	c1.8,2.7,1.6,4.5-1.8,5c-3.4,0.4-6.6-3.7-7.5-5.9c-0.9-2.3,0.9,2.3,0.9,2.3s-3.3,2.7-5.1-0.9c-1.8-3.6-5.6-2.8-5.6-6.8
	c0-4.1-2.5-6.8-2.4-8.4c0.1-1.6,0.8-12.1,0.8-12.1L353.8,1046.3z"/>
<path class="st8" d="M513.4,1044.5c0,0-10.4,9.6-9.8,11.6c0.6,2-0.3,6.6,5.5,5.2c5.8-1.4,7.6-5.3,7.6-5.3s1.9,12,0.1,14.8
	c-1.8,2.7-1.6,4.5,1.8,5c3.4,0.4,6.6-3.7,7.5-5.9c0.9-2.3-0.9,2.3-0.9,2.3s3.3,2.7,5.1-0.9c1.8-3.6,5.6-2.8,5.6-6.8
	c0-4.1,2.5-6.8,2.4-8.4c-0.1-1.6-0.8-12.1-0.8-12.1L513.4,1044.5z"/>
<path class="st1" d="M594.2,871.8"/>
<path class="st9" d="M375,920.8c5,8.9,1.1,13.6-0.6,17.8c-1.7,4.1,1.3,24.8,8.1,28.4c10.6,5.7,90.1,3.1,97.7-2.1
	c7.6-5.2,8.6-28.6,5.8-30c-2.8-1.3-2.8-8.6-2.1-14.1L375,920.8z"/>
<path class="st8" d="M354.5,840.2c-3.1-5.8-19.8-4-17.6,16.6c1.5,13.5,10.5,18.1,18.3,12.7l1.5,41.6c0,0-2.5,18.8,19.7,19
	c22.2,0.1,97,1.6,103.7,0.6c7.4-1.1,23.9-4.3,26.5-18.4c0.7-3.8,0.8-41.9,0.8-41.9c-4.8-2.6,19.4,13.4,19.6-16.6
	c0.1-23.2-18.4-16.1-18.7-13.1c-0.4,3.1-2.5-24-3.1-26.8c-0.7-2.7-146.1-2.1-146.1-2.1L354.5,840.2z"/>
<path class="st7" d="M413.3,858.7c0,4.3-3.8,7.7-8.4,7.7c-4.6,0-8.3-3.5-8.3-7.8c0-4.3,3.8-7.7,8.4-7.7
	C409.6,850.9,413.3,854.4,413.3,858.7z"/>
<path class="st7" d="M468.9,859c0,4.3-3.8,7.7-8.4,7.7c-4.6,0-8.3-3.5-8.3-7.8c0-4.3,3.8-7.7,8.4-7.7
	C465.2,851.3,468.9,854.8,468.9,859z"/>
<path class="st10" d="M384.4,840.4c-0.1-3.6,0.6-4.9,7.9-6.1c9.5-1.6,21.8-0.9,21.8-0.9s5.8,0.5,8,6.8
	C404.4,835.1,384.4,840.4,384.4,840.4z"/>
<path class="st10" d="M480.8,841.5c0.3-3.6-0.4-4.9-7.7-6.3c-9.4-1.9-21.8-1.6-21.8-1.6s-5.8,0.4-8.2,6.6
	C461,835.6,480.8,841.5,480.8,841.5z"/>
<path class="st10" d="M508.3,871.9c0,0-30.8-42.1-28.6-57.8l-61-0.4c0,0-37.2,5.2-30.9,38.7c0,0-11.6-2.4-16.6-14.4
	c0,0-14.1,21.9-15.2,40.5c0,0-23.9-49.1-2.7-64.8c23.1-17.1,97.1-32.8,131.8-14.9C519.5,816.7,525.6,828.6,508.3,871.9z"/>
<path class="st11" d="M356.3,818.8c-9.5-14.4-3.5-89.6,40.1-93.9c11.9-2.2,11.8-3.8,15.1-9.8c3.6-4.5,17.8-3.3,17.8-3.3
	s13.5,0,16.8,1.8c3.3,1.8,3.3,9.3,19.3,12.1c46,8.9,44.6,70.8,38.8,90.7C419.7,769.1,356.3,818.8,356.3,818.8z"/>
<path class="st12" d="M408.2,720.9c0,0,1.5,21.3-0.2,30.2c-1.6,8.9-7.4,8.2-11.6,14c-4.1,5.7-2,27.9-2,27.9"/>
<path class="st11" d="M346.1,822.7c22.8-16.2,145.8-17.8,168.6-0.2C488.5,773.2,368.8,774.2,346.1,822.7z"/>
<path class="st13" d="M353.4,811.9c30.6-21,116.5-23.4,152.6-1C483,780.3,374.5,782.2,353.4,811.9z"/>
<path class="st14" d="M424.3,876.1c0,0-9.8,4.6-3.8,11c4.9,5.3,19.6,4.1,23.5,0.1c4.4-4.5,2-9.2-3.3-11.4"/>
<path class="st11" d="M524.3,767.4"/>
<path class="st13" d="M406.1,721.9c0,0,2.1-1.3,3.1-3c1-1.7,1.6,34.1,0.4,37.4c-1.2,3.3-5.2,6.3-8.2,8c-3.1,1.7-4.3,6.6-4.8,10.7
	c-0.5,4.1-0.1,18-0.1,18l-3.6,1.3c0,0-0.2-16.5,0.1-20.1c0.4-3.6,2.8-11.7,6-13.6c3.3-1.9,6.2-2.7,7.5-7.5
	C408,748.3,406.1,721.9,406.1,721.9z"/>
<path class="st13" d="M454.1,721.6c0,0-1.3-0.5-2.8-2c-1.4-1.4-2.9,32.2-1.7,35.5c1.2,3.3,5.1,6.4,8.1,8.1c3,1.7,4.2,6.7,4.7,10.8
	c0.5,4.1-0.1,18-0.1,18l3.6,1.3c0,0,0.4-16.5,0.1-20.1c-0.3-3.6-2.7-11.8-5.9-13.7c-3.2-1.9-6.1-2.8-7.5-7.5
	C451.4,747.2,454.1,721.6,454.1,721.6z"/>
<path class="st15" d="M375.9,934.5c8.1,11,90.4,19.2,110.9,0.7c19.1,0.5,33.4,8.4,36.4,10.3c5.9,3.7,12,21.5,13.5,30
	c7.3,40.9,2.9,62.1,0.6,70.1c-16.2,6.3-26-2.3-26,0c0.1,5.6,0.6-58.6-4.3-61.5c0,0,2.9,56.6-1.4,60c-5,4-139.1,5.6-143.6,1.4
	c-3.9-3.6,1.1-59.8-0.6-58.3c-6.4,5.6-1.9,60.1-4.9,61.4c-3.3,1.5-26.2-2.2-27.5-3c0,0-2.1-67.3,4-83.6
	c6.4-17.2,13.7-17.2,29.2-19.4C377.7,940.5,375.9,934.5,375.9,934.5z"/>
<path class="st16" d="M405.1,901.7c13.8,7.3,45.9,3.6,56.7-2.2c0,0,1.4,10.1-4,12.5c-4.8,2.1-43.3,3.3-49.4-1.1
	C405.1,908.6,405.1,901.7,405.1,901.7z"/>
<rect x="644.8" y="902.8" class="st17" width="28.1" height="35.5"/>
<rect x="644.8" y="952.6" class="st17" width="28.1" height="35.5"/>
<polygon class="st16" points="668.6,963.1 649.1,963.1 658.9,980.3 "/>
<polygon class="st16" points="668.6,927.3 649.1,927.3 658.9,910 "/>
<rect x="222" y="1134.5" class="st18" width="415.8" height="11.8"/>
<g>
	<g>
		<polygon class="st16" points="442.1,989.3 442.1,977.8 449.4,972.6 449.4,977.7 457.1,972.6 457,977.7 465.4,972.6 465.4,977.7 
			474.1,972.6 474.1,977.7 476.8,977.7 478.5,957 481.9,957 483.5,977.7 485.1,963.1 488.4,963.1 489.8,977.7 491.2,977.8 
			491.2,989.3 		"/>
	</g>
	<g>
		<g>
			<path class="st16" d="M442.5,989.3c0-3.8,0-7.7,0-11.5c-0.1,0.1-0.1,0.2-0.2,0.4c2.4-1.7,4.9-3.5,7.3-5.2
				c-0.2-0.1-0.4-0.2-0.6-0.4c0,1.7,0,3.4,0,5.1c0,0.3,0.4,0.5,0.6,0.4c2.6-1.7,5.1-3.3,7.7-5c-0.2-0.1-0.4-0.2-0.6-0.4
				c0,1.7,0,3.3,0,5c0,0.3,0.4,0.5,0.6,0.4c2.8-1.7,5.6-3.4,8.4-5.1c-0.2-0.1-0.4-0.2-0.6-0.4c0,1.7,0,3.4,0,5.1
				c0,0.3,0.3,0.5,0.6,0.4c2.9-1.7,5.8-3.4,8.7-5.1c-0.2-0.1-0.4-0.2-0.6-0.4c0,1.7,0,3.4,0,5.1c0,0.2,0.2,0.4,0.4,0.4
				c0.9,0,1.8,0,2.7,0c0.2,0,0.4-0.2,0.4-0.4c0.5-5.8,1-11.7,1.4-17.5c0.1-1.1,0.2-2.1,0.3-3.2c-0.1,0.1-0.3,0.3-0.4,0.4
				c1.1,0,2.3,0,3.4,0c-0.1-0.1-0.3-0.3-0.4-0.4c0.4,5.8,0.9,11.7,1.3,17.5c0.1,1.1,0.2,2.1,0.2,3.2c0,0.5,0.8,0.5,0.8,0
				c0.6-4.9,1.1-9.7,1.7-14.6c-0.1,0.1-0.3,0.3-0.4,0.4c1.1,0,2.2,0,3.2,0c-0.1-0.1-0.3-0.3-0.4-0.4c0.5,4.9,1,9.7,1.4,14.6
				c0,0.2,0.2,0.4,0.4,0.4c0.5,0,0.9,0.1,1.4,0.1c-0.1-0.1-0.3-0.3-0.4-0.4c0,3.8,0,7.7,0,11.5c0.1-0.1,0.3-0.3,0.4-0.4
				c-3.9,0-7.8,0-11.7,0c-7.5,0-15,0-22.6,0c-4.8,0-9.6,0-14.5,0c-0.1,0-0.2,0-0.3,0c-0.5,0-0.5,0.8,0,0.8c3.9,0,7.8,0,11.7,0
				c7.5,0,15,0,22.6,0c4.8,0,9.6,0,14.5,0c0.1,0,0.2,0,0.3,0c0.2,0,0.4-0.2,0.4-0.4c0-3.8,0-7.7,0-11.5c0-0.2-0.2-0.4-0.4-0.4
				c-0.5,0-0.9-0.1-1.4-0.1c0.1,0.1,0.3,0.3,0.4,0.4c-0.5-4.9-1-9.7-1.4-14.6c0-0.2-0.2-0.4-0.4-0.4c-1.1,0-2.2,0-3.2,0
				c-0.2,0-0.4,0.2-0.4,0.4c-0.6,4.9-1.1,9.7-1.7,14.6c0.3,0,0.5,0,0.8,0c-0.4-5.8-0.9-11.7-1.3-17.5c-0.1-1.1-0.2-2.1-0.2-3.2
				c0-0.2-0.2-0.4-0.4-0.4c-1.1,0-2.3,0-3.4,0c-0.2,0-0.4,0.2-0.4,0.4c-0.5,5.8-1,11.7-1.4,17.5c-0.1,1.1-0.2,2.1-0.3,3.2
				c0.1-0.1,0.3-0.3,0.4-0.4c-0.9,0-1.8,0-2.7,0c0.1,0.1,0.3,0.3,0.4,0.4c0-1.7,0-3.4,0-5.1c0-0.3-0.3-0.5-0.6-0.4
				c-2.9,1.7-5.8,3.4-8.7,5.1c0.2,0.1,0.4,0.2,0.6,0.4c0-1.7,0-3.4,0-5.1c0-0.3-0.4-0.5-0.6-0.4c-2.8,1.7-5.6,3.4-8.4,5.1
				c0.2,0.1,0.4,0.2,0.6,0.4c0-1.7,0-3.3,0-5c0-0.3-0.4-0.5-0.6-0.4c-2.6,1.7-5.1,3.3-7.7,5c0.2,0.1,0.4,0.2,0.6,0.4
				c0-1.7,0-3.4,0-5.1c0-0.3-0.4-0.5-0.6-0.4c-2.3,1.7-4.6,3.3-7,5c-0.2,0.2-0.5,0.3-0.5,0.7c0,0.4,0,0.8,0,1.2c0,1.8,0,3.5,0,5.3
				c0,1.6,0,3.3,0,4.9C441.7,989.8,442.5,989.8,442.5,989.3z"/>
		</g>
	</g>
</g>
<g>
	<path class="st15" d="M447.4,987.9h-2.8v-7.5h2.8c1.8,0,2.5,0.9,2.5,2v3.6C449.8,986.9,449.2,987.9,447.4,987.9z M448.2,982.7
		c0-0.6-0.2-0.9-1-0.9h-1v4.5h1c0.8,0,1-0.3,1-0.9V982.7z"/>
	<path class="st15" d="M447.4,987.9h-2.9v-7.6h2.9c1.6,0,2.5,0.8,2.5,2v3.6C449.9,987.2,448.9,987.9,447.4,987.9z M444.6,987.8h2.8
		c1.5,0,2.4-0.7,2.4-1.9v-3.6c0-1.2-0.9-1.9-2.4-1.9h-2.8V987.8z M447.2,986.4h-1.1v-4.6h1.1c0.9,0,1.1,0.4,1.1,1v2.7
		C448.2,986,448.1,986.4,447.2,986.4z M446.2,986.3h0.9c0.8,0,1-0.3,1-0.9v-2.7c0-0.5-0.2-0.9-1-0.9h-0.9V986.3z"/>
</g>
<g>
	<path class="st15" d="M454.2,985.7v2.2h-1.7v-2.2l-2.3-5.4h1.7l1.4,3.5l1.4-3.5h1.7L454.2,985.7z"/>
	<path class="st15" d="M454.2,987.9h-1.8v-2.2l-2.3-5.4h1.9l1.3,3.4l1.3-3.4h1.9l-2.3,5.4V987.9z M452.6,987.8h1.5l0-2.1l2.3-5.3
		h-1.6l-1.4,3.6l-1.4-3.6h-1.6l2.3,5.3V987.8z"/>
</g>
<g>
	<path class="st15" d="M458.7,982.9v5h-1.6v-7.5h2l2.4,5.2v-5.2h1.6v7.5h-2L458.7,982.9z"/>
	<path class="st15" d="M463.2,987.9h-2.1l-2.3-4.8v4.8h-1.7v-7.6h2.1l0,0l2.3,4.9v-5h1.7V987.9z M461.2,987.8h1.9v-7.4h-1.5v5.4
		l-2.5-5.4h-1.9v7.4h1.5v-5.1L461.2,987.8z"/>
</g>
<g>
	<path class="st15" d="M470.7,987.9H469l-0.4-1.5h-2.5l-0.4,1.5H464l2.2-7.5h2.2L470.7,987.9z M466.5,985h1.7l-0.8-3.2L466.5,985z"
		/>
	<path class="st15" d="M470.8,987.9H469l-0.4-1.5h-2.4l-0.4,1.5h-1.8l2.3-7.6h2.3L470.8,987.9z M469,987.8h1.6l-2.2-7.4h-2.1
		l-2.2,7.4h1.6l0.4-1.5h2.6L469,987.8z M468.3,985h-1.8l0.9-3.4L468.3,985z M466.6,984.9h1.5l-0.8-2.9L466.6,984.9z"/>
</g>
<g>
	<path class="st15" d="M473.1,983.7l-0.1,4.2h-1.6l0.3-7.5h1.7l1.8,4.8l1.8-4.8h1.7l0.3,7.5h-1.6l-0.1-4.2l-1.3,3.2h-1.5
		L473.1,983.7z"/>
	<path class="st15" d="M479,987.9h-1.7l-0.1-4l-1.2,3h-1.6l-1.2-3l-0.1,4h-1.7l0.3-7.6h1.8l1.7,4.7l1.7-4.7h1.8L479,987.9z
		 M477.4,987.8h1.5l-0.3-7.4H477l-1.8,4.9l-1.8-4.9h-1.6l-0.3,7.4h1.5l0.1-4.4l1.4,3.4h1.4l1.4-3.4L477.4,987.8z"/>
</g>
<g>
	<path class="st15" d="M480.3,987.9v-7.5h1.7v7.5H480.3z"/>
	<path class="st15" d="M482,987.9h-1.8v-7.6h1.8V987.9z M480.3,987.8h1.5v-7.4h-1.5V987.8z"/>
</g>
<g>
	<path class="st15" d="M483.4,980.3h1.7v7.5h-1.7V980.3z M485.3,984l2-3.7h1.9l-2.1,3.7l2.2,3.8h-1.9L485.3,984z"/>
	<path class="st15" d="M489.4,987.9h-2l0,0l-2.2-3.9l2-3.7h2l-2.1,3.7L489.4,987.9z M487.5,987.8h1.7L487,984l2-3.6h-1.7l-2,3.6
		L487.5,987.8z M485.1,987.9h-1.8v-7.6h1.8V987.9z M483.5,987.8h1.5v-7.4h-1.5V987.8z"/>
</g>
<g>
	<path class="st16" d="M441.8,996.2v-6.9h4.3v1.4h-2.8v1.5h2.5v1.4h-2.5v2.7H441.8z"/>
	<path class="st16" d="M443.3,996.3h-1.6v-7h4.4v1.5h-2.8v1.4h2.5v1.5h-2.5V996.3z M441.8,996.2h1.4v-2.7h2.5v-1.3h-2.5v-1.6h2.8
		v-1.3h-4.2V996.2z"/>
</g>
<g>
	<path class="st16" d="M452.2,996.2h-1.6l-0.4-1.3H448l-0.4,1.3H446l2.1-6.9h2L452.2,996.2z M448.3,993.6h1.5l-0.8-2.9L448.3,993.6z
		"/>
	<path class="st16" d="M452.3,996.3h-1.7l-0.4-1.3H448l-0.4,1.3H446l2.1-7h2.1L452.3,996.3z M450.6,996.2h1.5l-2-6.8h-1.9l-2,6.8
		h1.5l0.4-1.3h2.3L450.6,996.2z M449.9,993.7h-1.7l0.9-3.2L449.9,993.7z M448.4,993.5h1.4l-0.7-2.6L448.4,993.5z"/>
</g>
<g>
	<path class="st16" d="M455.8,996.2h-2.9v-6.9h2.7c1.4,0,1.9,0.6,1.9,1.5v0.7c0,0.5-0.2,0.8-0.7,1.1c0.6,0.1,1,0.6,1,1.3v0.7
		C457.8,995.6,457.1,996.2,455.8,996.2z M456,991.1c0-0.3-0.2-0.5-0.6-0.5h-0.9v1.6h0.9c0.4,0,0.6-0.2,0.6-0.5V991.1z M456.2,994
		c0-0.4-0.2-0.6-0.6-0.6h-1.2v1.6h0.9c0.5,0,0.8-0.1,0.8-0.6V994z"/>
	<path class="st16" d="M455.8,996.3h-2.9v-7h2.7c1.3,0,2,0.5,2,1.6v0.7c0,0.5-0.2,0.8-0.6,1.1c0.5,0.2,0.9,0.7,0.9,1.3v0.7
		C457.8,995.7,457.1,996.3,455.8,996.3z M453,996.2h2.8c1.2,0,1.9-0.6,1.9-1.6v-0.7c0-0.6-0.4-1.1-0.9-1.2l-0.2,0l0.2-0.1
		c0.5-0.2,0.7-0.5,0.7-1v-0.7c0-1-0.6-1.5-1.9-1.5H453V996.2z M455.4,995.1h-1v-1.7h1.2c0.4,0,0.7,0.2,0.7,0.6v0.4
		C456.3,995,455.8,995.1,455.4,995.1z M454.5,994.9h0.9c0.6,0,0.8-0.2,0.8-0.5V994c0-0.4-0.3-0.5-0.6-0.5h-1.1V994.9z M455.4,992.2
		h-1v-1.7h1c0.5,0,0.7,0.3,0.7,0.5v0.6C456.1,992,455.8,992.2,455.4,992.2z M454.5,992.1h0.9c0.3,0,0.5-0.2,0.5-0.4v-0.6
		c0-0.3-0.2-0.4-0.5-0.4h-0.9V992.1z"/>
</g>
<g>
	<path class="st16" d="M461.1,994.1h-0.9v2.1h-1.5v-6.9h2.8c1.6,0,2.2,0.7,2.2,2v0.8c0,0.9-0.3,1.4-1,1.7l1.6,2.4h-1.8L461.1,994.1z
		 M462.2,991.5c0-0.5-0.2-0.7-0.8-0.7h-1.2v2h1.2c0.6,0,0.8-0.2,0.8-0.8V991.5z"/>
	<path class="st16" d="M464.5,996.3h-1.9l-1.5-2.1h-0.8v2.1h-1.6v-7h2.9c1.6,0,2.3,0.6,2.3,2v0.8c0,0.9-0.3,1.5-1,1.8L464.5,996.3z
		 M462.6,996.2h1.7l-1.6-2.3l0.1,0c0.6-0.3,0.9-0.8,0.9-1.7v-0.8c0-1.3-0.7-1.9-2.2-1.9h-2.7v6.8h1.4V994h1L462.6,996.2z
		 M461.4,992.8h-1.3v-2.1h1.3c0.6,0,0.9,0.2,0.9,0.8v0.5C462.3,992.5,462.2,992.8,461.4,992.8z M460.3,992.7h1.1
		c0.6,0,0.8-0.2,0.8-0.7v-0.5c0-0.5-0.2-0.7-0.8-0.7h-1.1V992.7z"/>
</g>
<g>
	<path class="st16" d="M465.3,996.2v-6.9h1.5v6.9H465.3z"/>
	<path class="st16" d="M466.8,996.3h-1.6v-7h1.6V996.3z M465.3,996.2h1.4v-6.8h-1.4V996.2z"/>
</g>
<g>
	<path class="st16" d="M468.1,989.4h1.5v6.9h-1.5V989.4z M469.9,992.7l1.8-3.4h1.7l-1.9,3.4l2,3.5h-1.7L469.9,992.7z"/>
	<path class="st16" d="M473.6,996.3h-1.8l0,0l-2-3.5l1.9-3.4h1.8l-1.9,3.4L473.6,996.3z M471.9,996.2h1.6l-2-3.5l1.9-3.3h-1.6
		l-1.8,3.3L471.9,996.2z M469.7,996.3h-1.6v-7h1.6V996.3z M468.2,996.2h1.4v-6.8h-1.4V996.2z"/>
</g>
<g>
	<path class="st16" d="M474.4,989.4h1.5v6.9h-1.5V989.4z M476.1,992.7l1.8-3.4h1.7l-1.9,3.4l2,3.5h-1.7L476.1,992.7z"/>
	<path class="st16" d="M479.9,996.3H478l0,0l-2-3.5l1.9-3.4h1.8l-1.9,3.4L479.9,996.3z M478.1,996.2h1.6l-2-3.5l1.9-3.3h-1.6
		l-1.8,3.3L478.1,996.2z M476,996.3h-1.6v-7h1.6V996.3z M474.4,996.2h1.4v-6.8h-1.4V996.2z"/>
</g>
<g>
	<path class="st16" d="M480.6,996.2v-6.9h4.2v1.4h-2.7v1.3h2.5v1.4h-2.5v1.5h2.7v1.4H480.6z"/>
	<path class="st16" d="M484.9,996.3h-4.4v-7h4.4v1.5h-2.7v1.1h2.5v1.5h-2.5v1.4h2.7V996.3z M480.7,996.2h4.1v-1.3h-2.7v-1.6h2.5
		v-1.3h-2.5v-1.4h2.7v-1.3h-4.1V996.2z"/>
</g>
<g>
	<path class="st16" d="M487.5,991.7v4.5H486v-6.9h1.9l2.2,4.8v-4.8h1.4v6.9h-1.9L487.5,991.7z"/>
	<path class="st16" d="M491.6,996.3h-2l-2.1-4.3v4.3H486v-7h2l0,0l2.1,4.5v-4.5h1.6V996.3z M489.7,996.2h1.8v-6.8h-1.3v5l-2.3-5
		h-1.8v6.8h1.3v-4.7L489.7,996.2z"/>
</g>
</svg>
